<svg width="462.978" height="462.978" xmlns="http://www.w3.org/2000/svg" xml:space="preserve" version="1.1">

 <g>
  <title>Layer 1</title>
  <g id="svg_1">
   <path fill="#ffffff" id="svg_2" d="m359.743,206.877c7.94,0 14.399,-6.459 14.399,-14.399l0,-35.488l21.858,-5.33l0,-64.068l-21.858,-5.33l0,-67.863c0,-7.94 -6.459,-14.399 -14.399,-14.399l-256.509,0c-7.94,0 -14.399,6.459 -14.399,14.399l0,67.863l-21.858,5.33l0,64.067l21.858,5.33l0,35.488c0,7.94 6.459,14.399 14.399,14.399l28.049,0l0,10.87c-17.833,2.18 -32.266,15.851 -35.379,33.551l-18.273,0l0,72.425l14.405,0l0,10.808l-14.405,0l0,5.8c0,19.526 15.886,35.412 35.412,35.412l5,0l0,-41.212l-16.006,0l0,-10.808l16.006,0l0,-72.425l-11.935,0c2.862,-12.134 12.838,-21.445 25.176,-23.455l0,115.2l32.22,0l0,10.696l-15.445,0l0,50.016l15.445,0l0,9.208l-27.506,0l0,50.016l85.342,0l0,-50.016l-27.507,0l0,-9.208l15.446,0l0,-50.016l-15.446,0l0,-10.696l75.186,0l0,10.696l-15.446,0l0,50.016l15.446,0l0,9.208l-27.509,0l0,50.016l85.342,0l0,-50.016l-27.506,0l0,-9.208l15.445,0l0,-50.016l-15.445,0l0,-10.696l32.348,0l0,-115.178c12.28,2.052 22.203,11.351 25.053,23.435l-11.94,0l0,72.425l16.006,0l0,10.808l-16.006,0l0,41.212l5,0c19.526,0 35.412,-15.886 35.412,-35.412l0,-5.8l-14.406,0l0,-10.808l14.406,0l0,-72.425l-18.269,0c-3.101,-17.638 -17.477,-31.299 -35.256,-33.534l0,-10.887l28.049,0l0,-0.001zm-251.701,158.372c-10.274,-2.058 -18.331,-10.332 -20.064,-20.718l20.064,0l0,20.718zm0,-51.526l-20.411,0l0,-52.425l20.412,0l0,52.425l-0.001,0zm246.765,51.527l0,-20.718l20.065,0c-1.734,10.385 -9.791,18.659 -20.065,20.718zm20.412,-51.527l-20.412,0l0,-52.425l20.412,0l0,52.425zm10.782,-218.276l0,48.358l-11.858,2.892l0,-54.142l11.858,2.892zm-309.024,48.358l0,-48.358l11.858,-2.892l0,54.143l-11.858,-2.893zm26.257,53.072c-2.426,0 -4.399,-1.974 -4.399,-4.399l0,-178.079c0,-2.426 1.974,-4.399 4.399,-4.399l256.509,0c2.426,0 4.399,1.974 4.399,4.399l0,178.079c0,2.426 -1.974,4.399 -4.399,4.399l-28.049,0l-41.958,0l0,-1.707c0,-17.468 -14.211,-31.679 -31.679,-31.679l-53.132,0c-17.468,0 -31.679,14.211 -31.679,31.679l0,1.707l-41.962,0l-28.05,0zm176.502,0l-96.49,0l0,-1.707c0,-11.954 9.725,-21.679 21.679,-21.679l53.132,0c11.954,0 21.679,9.725 21.679,21.679l0,1.707zm-133.739,256.101l0,-3.496l65.342,0l0,3.496l-65.342,0zm65.342,-13.496l-65.342,0l0,-16.52l65.342,0l0,16.52zm-27.507,-26.52l-10.329,0l0,-9.208l10.329,0l0,9.208zm15.446,-19.208l-41.22,0l0,-30.016l41.22,0l0,30.016zm-15.446,-40.015l-10.329,0l0,-10.696l10.329,0l0,10.696zm67.678,99.239l0,-3.496l65.342,0l0,3.496l-65.342,0zm65.342,-13.496l-65.342,0l0,-16.52l65.342,0l0,16.52zm-27.506,-26.52l-10.329,0l0,-9.208l10.329,0l0,9.208zm15.445,-19.208l-41.22,0l0,-30.016l41.22,0l0,30.016zm-15.445,-40.015l-10.329,0l0,-10.696l10.329,0l0,10.696zm32.348,-20.696l-180.411,0l0,-126.166l180.411,0l0,126.166z"/>
   <path fill="#ffffff" id="svg_3" d="m110.835,179.882c-1.32,0 -2.61,0.53 -3.54,1.46c-0.93,0.93 -1.46,2.22 -1.46,3.54c0,1.31 0.53,2.6 1.46,3.53c0.93,0.93 2.22,1.47 3.54,1.47c1.32,0 2.6,-0.54 3.53,-1.47c0.94,-0.93 1.47,-2.22 1.47,-3.53c0,-1.32 -0.53,-2.61 -1.47,-3.54c-0.929,-0.93 -2.209,-1.46 -3.53,-1.46z"/>
   <circle fill="#ffffff" id="svg_4" r="5" cy="68.532" cx="110.835"/>
   <path fill="#ffffff" id="svg_5" d="m110.835,50.272c2.76,0 5,-2.24 5,-5c0,-2.77 -2.24,-5 -5,-5c-2.76,0 -5,2.23 -5,5c0,2.76 2.241,5 5,5z"/>
   <circle fill="#ffffff" id="svg_6" r="5" cy="91.802" cx="110.835"/>
   <path fill="#ffffff" id="svg_7" d="m110.835,27.002c1.31,0 2.6,-0.54 3.53,-1.47c0.94,-0.93 1.47,-2.22 1.47,-3.53c0,-1.32 -0.53,-2.61 -1.47,-3.54c-0.93,-0.93 -2.21,-1.46 -3.53,-1.46c-1.32,0 -2.61,0.53 -3.54,1.46c-0.93,0.93 -1.46,2.22 -1.46,3.54c0,1.31 0.53,2.6 1.46,3.53c0.931,0.93 2.221,1.47 3.54,1.47z"/>
   <path fill="#ffffff" id="svg_8" d="m220.516,27.002c2.77,0 5,-2.24 5,-5c0,-2.76 -2.23,-5 -5,-5c-2.76,0 -4.99,2.24 -4.99,5c-0.001,2.76 2.229,5 4.99,5z"/>
   <circle fill="#ffffff" id="svg_9" r="5" cy="22.002" cx="308.266"/>
   <path fill="#ffffff" id="svg_10" d="m286.335,27.002c2.76,0 5,-2.24 5,-5c0,-2.76 -2.24,-5 -5,-5c-2.77,0 -5,2.24 -5,5c0,2.76 2.23,5 5,5z"/>
   <circle fill="#ffffff" id="svg_11" r="5" cy="22.002" cx="330.206"/>
   <circle fill="#ffffff" id="svg_12" r="5" cy="22.002" cx="264.396"/>
   <circle fill="#ffffff" id="svg_13" r="5" cy="22.002" cx="198.585"/>
   <circle fill="#ffffff" id="svg_14" r="5" cy="22.002" cx="242.456"/>
   <circle fill="#ffffff" id="svg_15" r="5" cy="22.002" cx="154.706"/>
   <circle fill="#ffffff" id="svg_16" r="5" cy="22.002" cx="176.646"/>
   <circle fill="#ffffff" id="svg_17" r="5" cy="22.002" cx="132.775"/>
   <path fill="#ffffff" id="svg_18" d="m352.146,27.002c1.31,0 2.6,-0.54 3.53,-1.47c0.93,-0.93 1.47,-2.22 1.47,-3.53c0,-1.32 -0.54,-2.61 -1.47,-3.54c-0.93,-0.93 -2.22,-1.46 -3.53,-1.46c-1.32,0 -2.61,0.53 -3.54,1.46c-0.93,0.93 -1.46,2.22 -1.46,3.54c0,1.31 0.53,2.6 1.46,3.53c0.93,0.93 2.22,1.47 3.54,1.47z"/>
   <path fill="#ffffff" id="svg_19" d="m352.146,50.272c2.76,0 5,-2.24 5,-5c0,-2.77 -2.24,-5 -5,-5c-2.77,0 -5,2.23 -5,5c0,2.76 2.229,5 5,5z"/>
   <path fill="#ffffff" id="svg_20" d="m352.146,96.802c2.76,0 5,-2.24 5,-5c0,-2.76 -2.24,-5 -5,-5c-2.77,0 -5,2.24 -5,5c0,2.76 2.229,5 5,5z"/>
   <path fill="#ffffff" id="svg_21" d="m352.146,73.532c2.76,0 5,-2.23 5,-5c0,-2.76 -2.24,-5 -5,-5c-2.77,0 -5,2.24 -5,5c0,2.77 2.229,5 5,5z"/>
   <path fill="#ffffff" id="svg_22" d="m352.146,179.872c-1.32,0 -2.61,0.54 -3.54,1.47c-0.93,0.93 -1.46,2.22 -1.46,3.54c0,1.31 0.53,2.6 1.46,3.53c0.93,0.93 2.22,1.47 3.54,1.47c1.31,0 2.6,-0.54 3.53,-1.47c0.93,-0.93 1.47,-2.22 1.47,-3.53c0,-1.32 -0.54,-2.61 -1.47,-3.54c-0.93,-0.93 -2.22,-1.47 -3.53,-1.47z"/>
   <path fill="#ffffff" id="svg_23" d="m308.266,179.882c-2.76,0 -5,2.23 -5,5c0,2.76 2.24,5 5,5c2.76,0 5,-2.24 5,-5c0,-2.77 -2.241,-5 -5,-5z"/>
   <path fill="#ffffff" id="svg_24" d="m330.206,179.882c-2.76,0 -5,2.23 -5,5c0,2.76 2.24,5 5,5c2.76,0 5,-2.24 5,-5c0,-2.77 -2.241,-5 -5,-5z"/>
   <path fill="#ffffff" id="svg_25" d="m154.706,179.882c-2.76,0 -5,2.23 -5,5c0,2.76 2.24,5 5,5c2.76,0 5,-2.24 5,-5c0,-2.77 -2.241,-5 -5,-5z"/>
   <path fill="#ffffff" id="svg_26" d="m132.775,179.882c-2.77,0 -5,2.23 -5,5c0,2.76 2.23,5 5,5c2.76,0 5,-2.24 5,-5c0,-2.77 -2.239,-5 -5,-5z"/>
   <path fill="#ffffff" id="svg_27" d="m134.572,105.392c-17.761,0 -32.211,14.45 -32.211,32.211c0,17.761 14.45,32.21 32.211,32.21c17.761,0 32.21,-14.45 32.21,-32.21c0,-17.762 -14.449,-32.211 -32.21,-32.211zm0,54.421c-12.247,0 -22.211,-9.963 -22.211,-22.21s9.964,-22.211 22.211,-22.211s22.21,9.964 22.21,22.211s-9.963,22.21 -22.21,22.21z"/>
   <path fill="#ffffff" id="svg_28" d="m134.572,123.533c-7.758,0 -14.07,6.312 -14.07,14.07c0,7.758 6.312,14.069 14.07,14.069c7.758,0 14.069,-6.312 14.069,-14.069c0,-7.759 -6.311,-14.07 -14.069,-14.07zm0,18.139c-2.244,0 -4.07,-1.826 -4.07,-4.069c0,-2.244 1.826,-4.07 4.07,-4.07c2.244,0 4.069,1.826 4.069,4.07c0,2.243 -1.825,4.069 -4.069,4.069z"/>
   <path fill="#ffffff" id="svg_29" d="m328.406,169.813c17.761,0 32.211,-14.45 32.211,-32.21c0,-17.761 -14.45,-32.211 -32.211,-32.211c-17.761,0 -32.21,14.45 -32.21,32.211c-0.001,17.76 14.449,32.21 32.21,32.21zm0,-54.421c12.247,0 22.211,9.964 22.211,22.211s-9.964,22.21 -22.211,22.21s-22.21,-9.963 -22.21,-22.21s9.962,-22.211 22.21,-22.211z"/>
   <path fill="#ffffff" id="svg_30" d="m328.406,151.672c7.758,0 14.07,-6.312 14.07,-14.069c0,-7.758 -6.312,-14.07 -14.07,-14.07c-7.758,0 -14.069,6.312 -14.069,14.07c-0.001,7.757 6.311,14.069 14.069,14.069zm0,-18.139c2.244,0 4.07,1.826 4.07,4.07c0,2.244 -1.826,4.069 -4.07,4.069c-2.244,0 -4.069,-1.826 -4.069,-4.069c-0.001,-2.245 1.825,-4.07 4.069,-4.07z"/>
   <polygon fill="#ffffff" id="svg_31" points="167.43,271.363 157.43,271.363 157.43,285.591 151.759,285.591 151.759,295.591 157.43,295.591 157.43,324.76    167.43,324.76 167.43,295.591 173.101,295.591 173.101,285.591 167.43,285.591  "/>
   <polygon fill="#ffffff" id="svg_32" points="193.041,271.363 183.041,271.363 183.041,300.531 177.37,300.531 177.37,310.531 183.041,310.531 183.041,324.76    193.041,324.76 193.041,310.531 198.713,310.531 198.713,300.531 193.041,300.531  "/>
   <polygon fill="#ffffff" id="svg_33" points="208.653,324.76 218.653,324.76 218.653,295.591 224.324,295.591 224.324,285.591 218.653,285.591 218.653,271.363    208.653,271.363 208.653,285.591 202.981,285.591 202.981,295.591 208.653,295.591  "/>
   <polygon fill="#ffffff" id="svg_34" points="244.264,271.363 234.264,271.363 234.264,300.531 228.593,300.531 228.593,310.531 234.264,310.531    234.264,324.76 244.264,324.76 244.264,310.531 249.935,310.531 249.935,300.531 244.264,300.531  "/>
   <path fill="#ffffff" id="svg_35" d="m196.74,215.16l-45.571,0l0,45.571l45.571,0l0,-45.571zm-10,35.571l-25.571,0l0,-25.571l25.571,0l0,25.571z"/>
   <path fill="#ffffff" id="svg_36" d="m227.957,260.731c12.564,0 22.786,-10.222 22.786,-22.786s-10.222,-22.786 -22.786,-22.786s-22.786,10.222 -22.786,22.786s10.222,22.786 22.786,22.786zm0,-10c-1.69,0 -3.301,-0.337 -4.779,-0.936l16.629,-16.629c0.598,1.478 0.936,3.089 0.936,4.779c-0.001,7.051 -5.736,12.786 -12.786,12.786zm0,-25.571c1.69,0 3.301,0.337 4.779,0.936l-16.629,16.629c-0.598,-1.478 -0.936,-3.089 -0.936,-4.779c0,-7.05 5.736,-12.786 12.786,-12.786z"/>
   <path fill="#ffffff" id="svg_37" d="m311.808,215.16l-52.483,0l0,109.6l52.483,0l0,-109.6zm-10,99.6l-32.483,0l0,-89.6l32.483,0l0,89.6z"/>
   <rect fill="#ffffff" id="svg_38" height="68.297" width="10" y="235.812" x="280.567"/>
  </g>
 </g>
</svg>